<?xml version="1.0" encoding="UTF-8"?>
<svg id="Layer_2" data-name="Layer 2" xmlns="http://www.w3.org/2000/svg" viewBox="0 0 193.49 61.63">
  <defs>
    <style>
      .cls-1 {
        fill: #fff;
      }
    </style>
  </defs>
  <g id="Layer_1-2" data-name="Layer 1">
    <g>
      <g>
        <path class="cls-1" d="M63.44,36.95h0c1.16,0,2.19,.66,2.73,1.69,.91,1.74,3.18,2.87,6.65,2.87,4.69,0,7.1-2.02,7.1-4.56,0-3.06-3.39-3.45-7.43-3.97-5.6-.72-12.38-1.76-12.38-9.12,0-6.32,4.95-10.62,12.64-10.62,5.44,0,9.41,2.18,11.31,5.42,1.17,1.98-.36,4.49-2.66,4.49h0c-1.08,0-2.13-.54-2.62-1.51-.84-1.68-2.91-2.8-5.97-2.8-4.1,0-6.45,1.95-6.45,4.5,0,3.06,3.39,3.39,7.36,3.91,5.6,.72,12.45,1.76,12.45,9.12,0,6.52-5.28,10.75-13.36,10.75-5.77,0-10.02-2.2-12.04-5.59-1.2-2.02,.31-4.58,2.66-4.58Z"/>
        <path class="cls-1" d="M88.45,29.97c0-10.69,7.95-16.75,16.35-16.75,5.21,0,8,.85,11.99,3.92V3.1c0-1.71,1.39-3.1,3.1-3.1h0c1.71,0,3.1,1.39,3.1,3.1V29.91c0,10.49-7.17,17.2-17.14,17.2s-17.4-7.04-17.4-17.14Zm28.34,.2c0-6.52-4.43-11.21-11.01-11.21s-11.08,4.69-11.08,11.21,4.43,11.21,11.08,11.21,11.01-4.69,11.01-11.21Z"/>
        <path class="cls-1" d="M129.23,14.07h0c1.28,0,2.42,.78,2.89,1.97l8.49,21.56c.44,1.12,2.02,1.12,2.46,0l8.51-21.61c.45-1.15,1.57-1.91,2.81-1.91h0c2.15,0,3.61,2.19,2.78,4.18l-10.24,24.55c-.87,2.09-2.92,3.46-5.19,3.46h0c-2.27,0-4.32-1.36-5.19-3.46l-10.19-24.43c-.85-2.05,.65-4.3,2.87-4.3Z"/>
        <path class="cls-1" d="M163.63,0h0c1.71,0,3.09,1.39,3.09,3.09v14.05c3-2.93,5.99-3.92,10.75-3.92,8.01,0,14.86,5.02,14.86,16.29v13.65c0,1.71-1.39,3.09-3.09,3.09h0c-1.71,0-3.09-1.39-3.09-3.09v-13.65c0-6.97-3.85-10.56-9.71-10.56s-9.71,3.65-9.71,10.56v13.65c0,1.71-1.39,3.09-3.09,3.09h0c-1.71,0-3.09-1.39-3.09-3.09V3.09c0-1.71,1.39-3.09,3.09-3.09Z"/>
      </g>
      <path class="cls-1" d="M16.91,57.32c3.69,5.74,12.09,5.74,15.78,0l11.94-18.58c3.17-4.23,4.97-9.44,4.97-14.86,0-8.75-4.7-16.95-12.25-21.39-1.46-.86-3.33-.37-4.18,1.09-.86,1.46-.37,3.33,1.08,4.18,3.22,1.89,5.75,4.69,7.34,7.95,1.15,2.36-.59,5.11-3.21,5.11h0c-1.35,0-2.6-.77-3.19-1.99-1.87-3.85-5.82-6.51-10.39-6.51s-8.52,2.65-10.39,6.51c-.59,1.22-1.83,1.99-3.19,1.99h0c-2.59,0-4.36-2.7-3.24-5.03,1.57-3.26,4.07-6.05,7.25-7.96,1.36-.81,2.02-2.51,1.36-3.95-.76-1.69-2.79-2.3-4.34-1.39C4.69,6.94,0,15.14,0,23.89c0,5.45,1.82,10.67,5.01,14.92l11.9,18.52Zm11.15-4.18c-1.53,2.38-5.01,2.38-6.54,0l-5.45-8.46-6.04-9.37-1.67-2.59s-.03-.05-.06-.07c-.1-.18-.19-.36-.28-.54-1.16-2.38,.54-5.16,3.18-5.16h0c1.35,0,2.6,.77,3.19,1.99,1.87,3.85,5.82,6.51,10.39,6.51s8.52-2.65,10.39-6.51c.59-1.22,1.83-1.99,3.19-1.99h0c2.64,0,4.35,2.77,3.19,5.15-.09,.18-.18,.37-.28,.55-.02,.02-.04,.05-.06,.07l-1.68,2.6-6.04,9.37-5.45,8.46Z"/>
      <g>
        <path class="cls-1" d="M58.96,59.12l1.72-.43c.16,.9,.7,1.34,1.49,1.34,.57,0,1.02-.28,1.02-.79,0-.45-.38-.71-1.38-1.09-1.61-.62-2.29-1.34-2.29-2.54,0-1.31,1.02-2.23,2.57-2.23,1.09,0,1.97,.51,2.48,1.52l-1.41,.86c-.29-.52-.68-.81-1.13-.81-.41,0-.74,.26-.74,.63s.29,.66,1.43,1.09c1.5,.56,2.23,1.24,2.23,2.47,0,1.44-1.13,2.47-2.84,2.47s-2.92-.98-3.15-2.48Z"/>
        <path class="cls-1" d="M65.95,53.58h5.27v1.58h-3.5v1.44h3.33v1.58h-3.33v1.68h3.5v1.58h-5.27v-7.85Z"/>
        <path class="cls-1" d="M72.4,53.58h1.77v6.27h3.22v1.58h-4.99v-7.85Z"/>
        <path class="cls-1" d="M78.14,53.58h5.32v1.58h-3.55v1.44h3.08v1.58h-3.08v3.25h-1.77v-7.85Z"/>
        <path class="cls-1" d="M87.29,53.58h2.37c2.62,0,4.13,1.44,4.13,3.99s-1.46,3.86-4.14,3.86h-2.35v-7.85Zm2.17,6.23c1.6,0,2.54-.42,2.54-2.31s-.91-2.3-2.39-2.3h-.56v4.61h.41Z"/>
        <path class="cls-1" d="M94.81,53.58h2.76c1.98,0,2.73,.92,2.73,2.32,0,1.1-.47,1.82-1.32,2.17l2.06,3.36h-2.05l-1.81-3.12h-.6v3.12h-1.77v-7.85Zm2.58,3.15c.56,0,1.14-.08,1.14-.81s-.59-.77-1.14-.77h-.81v1.58h.81Z"/>
        <path class="cls-1" d="M101.8,53.58h1.77v7.85h-1.77v-7.85Z"/>
        <path class="cls-1" d="M104.26,53.58h1.95l1.87,4.92,1.83-4.92h1.96l-3.15,7.85h-1.29l-3.16-7.85Z"/>
        <path class="cls-1" d="M112.57,53.58h5.27v1.58h-3.5v1.44h3.33v1.58h-3.33v1.68h3.5v1.58h-5.27v-7.85Z"/>
        <path class="cls-1" d="M121.31,53.58h1.95l1.87,4.92,1.83-4.92h1.96l-3.15,7.85h-1.29l-3.16-7.85Z"/>
        <path class="cls-1" d="M129.62,53.58h5.27v1.58h-3.5v1.44h3.33v1.58h-3.33v1.68h3.5v1.58h-5.27v-7.85Z"/>
        <path class="cls-1" d="M136.07,53.58h1.77v2.98h3.05v-2.98h1.77v7.85h-1.77v-3.24h-3.05v3.24h-1.77v-7.85Z"/>
        <path class="cls-1" d="M143.98,53.58h1.77v7.85h-1.77v-7.85Z"/>
        <path class="cls-1" d="M146.77,57.5c0-2.47,1.57-4.12,3.84-4.12,1.72,0,3.03,.92,3.57,2.43l-1.67,.6c-.3-.84-.98-1.34-1.9-1.34-1.26,0-2.07,.91-2.07,2.43s.81,2.44,2.07,2.44c.92,0,1.6-.5,1.9-1.34l1.67,.6c-.54,1.51-1.85,2.43-3.57,2.43-2.27,0-3.84-1.66-3.84-4.13Z"/>
        <path class="cls-1" d="M155.1,53.58h1.77v6.27h3.22v1.58h-4.99v-7.85Z"/>
        <path class="cls-1" d="M160.84,53.58h5.27v1.58h-3.5v1.44h3.33v1.58h-3.33v1.68h3.5v1.58h-5.27v-7.85Z"/>
        <path class="cls-1" d="M170.22,53.58h1.77v2.98h3.05v-2.98h1.77v7.85h-1.77v-3.24h-3.05v3.24h-1.77v-7.85Z"/>
        <path class="cls-1" d="M178.13,53.58h1.77v7.85h-1.77v-7.85Z"/>
        <path class="cls-1" d="M181.23,53.58h2.76c1.98,0,2.72,.92,2.72,2.32,0,1.1-.47,1.82-1.32,2.17l2.06,3.36h-2.05l-1.81-3.12h-.6v3.12h-1.77v-7.85Zm2.58,3.15c.56,0,1.14-.08,1.14-.81s-.59-.77-1.14-.77h-.81v1.58h.81Z"/>
        <path class="cls-1" d="M188.21,53.58h5.27v1.58h-3.5v1.44h3.33v1.58h-3.33v1.68h3.5v1.58h-5.27v-7.85Z"/>
      </g>
    </g>
  </g>
</svg>
